<svg width="104.00000000000001" height="102" xmlns="http://www.w3.org/2000/svg" xmlns:undefined="http://sodipodi.sourceforge.net/DTD/sodipodi-0.dtd" xmlns:undefined="http://www.inkscape.org/namespaces/inkscape" version="1.1" space="preserve">

 <metadata>image/svg+xmlOpenclipartPictogramme Camping2008-08-12T16:56:17https://openclipart.org/detail/18396/pictogramme-camping-by-geantgeantcampingpictogramsymbol</metadata>
 <g>
  <title>Layer 1</title>
  <g id="g3293">
   <path fill="#000000" fill-rule="evenodd" d="m45.293,9.2959l-1.719,1.374l7.219,11.063l-45.469,70.875l33.813,0l0,-1l0,-0.219l0,-22.406l26.125,0l0,22.406l0,0.219l0,1l33.81,0l-45.466,-70.906l6.812,-10.906l-1.687,-1.376l-6.531,10.563l-6.907,-10.687z" id="path2400"/>
   <path fill="none" stroke-width="4.2747" stroke="#000000" d="m9.161,0l86.091,0c5.08,0 9.16,3.9876 9.16,8.9409l0,84.019c0,4.948 -4.08,8.938 -9.16,8.938l-86.091,0c-5.075,0 -9.161,-3.99 -9.161,-8.938l0,-84.019c0,-4.9533 4.086,-8.9409 9.161,-8.9409z" id="rect3207"/>
  </g>
 </g>
</svg>